<?xml version="1.0" encoding="UTF-8" standalone="no"?>
<!-- Created with Inkscape (http://www.inkscape.org/) -->

<svg
   width="82"
   height="25"
   viewBox="0 0 21.695833 6.6145833"
   version="1.1"
   id="svg1"
   inkscape:version="1.4 (86a8ad7, 2024-10-11)"
   sodipodi:docname="250902_TFactorTx_Logo_Color_Variation_Path_Header_Footer.svg"
   xml:space="preserve"
   xmlns:inkscape="http://www.inkscape.org/namespaces/inkscape"
   xmlns:sodipodi="http://sodipodi.sourceforge.net/DTD/sodipodi-0.dtd"
   xmlns="http://www.w3.org/2000/svg"
   xmlns:svg="http://www.w3.org/2000/svg"><sodipodi:namedview
     id="namedview1"
     pagecolor="#ffffff"
     bordercolor="#000000"
     borderopacity="0.25"
     inkscape:showpageshadow="2"
     inkscape:pageopacity="0.0"
     inkscape:pagecheckerboard="0"
     inkscape:deskcolor="#d1d1d1"
     inkscape:document-units="mm"
     inkscape:zoom="8.3740174"
     inkscape:cx="20.65914"
     inkscape:cy="3.5228014"
     inkscape:window-width="2560"
     inkscape:window-height="1377"
     inkscape:window-x="1912"
     inkscape:window-y="-8"
     inkscape:window-maximized="1"
     inkscape:current-layer="layer1" /><defs
     id="defs1"><linearGradient
       id="swatch34"
       inkscape:swatch="solid"><stop
         style="stop-color:#000000;stop-opacity:1;"
         offset="0"
         id="stop34" /></linearGradient><rect
       x="260.09021"
       y="214.95059"
       width="4.0601778"
       height="9.0756912"
       id="rect5" /><clipPath
       clipPathUnits="userSpaceOnUse"
       id="clipPath3"><rect
         style="fill:none;stroke-width:0.264583"
         id="rect4"
         width="10.77415"
         height="9.9526596"
         x="67.867661"
         y="69.352661" /></clipPath><clipPath
       clipPathUnits="userSpaceOnUse"
       id="clipPath5"><path
         style="fill:none;stroke:#000000;stroke-width:0.1;stroke-dasharray:none;stroke-opacity:1"
         d="m 68.891743,71.006932 1.695513,-1.235316 0.831763,-0.162539 3.199085,-0.03251 0.895744,0.195051 1.695516,1.332838 0.639818,2.243072 v 1.917985 l -0.831762,1.430364 -0.447874,0.747689 -1.119677,0.910233 -4.73465,0.0325 -1.503568,-1.202806 -1.151668,-1.917988 0.03199,-1.657919 z"
         id="path6" /></clipPath></defs><g
     inkscape:label="Ebene 1"
     inkscape:groupmode="layer"
     id="layer1"><text
       xml:space="preserve"
       transform="scale(0.26458333)"
       id="text5"
       style="font-size:8px;font-family:Arial;-inkscape-font-specification:'Arial, Normal';text-align:start;writing-mode:lr-tb;direction:ltr;white-space:pre;shape-inside:url(#rect5);display:inline;fill:#000000" /><rect
       style="fill:none;stroke-width:0.264583"
       id="rect1"
       width="11.121699"
       height="9.5735064"
       x="67.583305"
       y="69.384262"
       ry="0" /><rect
       style="fill:none;stroke-width:0.264583"
       id="rect2"
       width="9.4155331"
       height="8.9099998"
       x="66.698624"
       y="68.088837" /><path
       style="fill:none;stroke-width:0.264583"
       d="m 67.930852,70.806066 1.706171,-1.232234 1.011065,-0.22117 3.507126,0.09479 0.853086,0.600318 1.137446,0.884682 0.379151,1.137447 0.22117,1.074256 0.03159,1.54819 -0.947872,1.706171 -1.10585,1.200637 -0.789895,0.315958 -4.265425,-0.06319 -1.990532,-1.611384"
       id="path4" /><g
       id="g6"
       transform="translate(19.589363,0.94787238)" /><g
       id="g114"
       transform="matrix(2.0000016,0,0,2.0000016,-52.474992,-97.617495)"><g
         id="g113"
         transform="translate(-4.0661651,-4.3119223)"><path
           id="path34-7"
           style="opacity:0.5;fill:none;fill-opacity:1;stroke:#000000;stroke-width:0.0519047;stroke-dasharray:none;stroke-opacity:1"
           d="m 31.745543,56.189408 1.00024,-0.02563 m -1.128475,-0.224415 0.128235,0.250059 -0.153965,0.20967 m 1.282441,-0.466143 -0.128236,0.230828 0.154243,0.222425 M 33.67989,55.93014 33.515203,55.702125 m -2.718828,0.191743 0.147693,-0.210977 m 1.647832,-0.121828 0.282119,0.371885 0.641184,-0.230823 0.320591,-0.66683 m -3.205908,-0.0056 0.314182,0.654002 0.67324,0.256476 0.275705,-0.371887 m 1.69272,-1.096421 0.250061,0.564239 0.243074,-0.238615 m -3.699609,-0.136015 0.250627,0.368221 0.269297,-0.545008 m 0.609121,0.262889 0.384709,0.82071 0.698887,-0.007 0.3783,-0.814299 m 0.634769,-0.82712 -0.01921,0.551413 -0.615535,0.275708 -0.730946,-0.545002 m -1.359304,-0.314182 0.01919,0.596301 0.609122,0.262883 0.730947,-0.545002 -0.0031,-0.683622 m 1.69788,0.516862 -0.328819,-0.115355 -0.770636,-0.571521 m -2.309985,0.587128 0.355603,-0.04766 0.759717,-0.553062 m 0.217625,-0.188153 -0.217625,0.188153 0.596196,0.18362 0.598469,-0.170017 -0.224423,-0.201756 m -1.976754,0.553127 0.716348,-0.489657 0.507789,-0.06349 h 0.752617 l 0.553127,0.09065 0.680074,0.507788 0.09069,0.290169 0.145081,0.761679 -0.0092,0.462456 -0.389913,0.671007 -0.507789,0.453383 -1.840738,0.01815 -0.534982,-0.507783 -0.417111,-0.652873 v -0.580331 l 0.145075,-0.725414 z" /><path
           style="opacity:0.5;fill:#3477bb;fill-opacity:1;stroke:none;stroke-width:0;stroke-dasharray:none;stroke-opacity:1"
           d="m 115.65157,209.85729 -0.72796,-1.13857 v -0.87372 -0.87373 l 0.3717,0.54514 c 0.27934,0.40969 0.51028,0.83363 0.92945,1.7062 0.30676,0.63858 0.55748,1.18342 0.55715,1.21074 -6.9e-4,0.0561 -0.3414,0.56251 -0.37844,0.56251 -0.0132,0 -0.35153,-0.51235 -0.7519,-1.13857 z"
           id="path97"
           transform="scale(0.26458333)" /><path
           style="opacity:0.5;fill:#3477bb;fill-opacity:1;stroke:none;stroke-width:0;stroke-dasharray:none;stroke-opacity:1"
           d="m 117.52785,212.15359 c -0.57893,-0.55027 -0.9474,-0.93065 -0.93044,-0.96051 0.12428,-0.21886 0.41276,-0.57956 0.45197,-0.56514 0.0267,0.01 0.5684,0.21517 1.20373,0.45633 l 1.15516,0.43847 0.19561,0.38042 c 0.10759,0.20923 0.20134,0.40137 0.20835,0.42698 0.007,0.0256 -0.10204,0.20135 -0.24232,0.39054 l -0.25504,0.34398 h -0.41425 -0.41426 z"
           id="path98"
           transform="scale(0.26458333)" /><path
           style="opacity:0.5;fill:#3477bb;fill-opacity:1;stroke:none;stroke-width:0;stroke-dasharray:none;stroke-opacity:1"
           d="m 119.6945,212.99648 c 0,-0.0143 0.0804,-0.13521 0.17873,-0.26874 l 0.17873,-0.24278 1.18288,-0.0272 c 0.65058,-0.015 1.46865,-0.0389 1.81793,-0.0532 l 0.63506,-0.026 0.20063,0.29024 0.20064,0.29024 -0.18128,0.0285 c -0.22746,0.0358 -4.21332,0.0442 -4.21332,0.009 z"
           id="path99"
           transform="scale(0.26458333)" /><path
           style="opacity:0.5;fill:#000000;fill-opacity:0;stroke:none;stroke-width:0;stroke-dasharray:none;stroke-opacity:1"
           d="m 115.34702,207.1501 -0.39989,-0.59033 0.24822,-1.25457 c 0.13652,-0.69002 0.25582,-1.27588 0.26511,-1.30191 0.0133,-0.0374 0.88847,-0.18545 1.09348,-0.18498 0.0325,7e-5 0.0565,0.32417 0.0777,1.04834 l 0.0306,1.04824 -0.45769,0.91278 -0.45769,0.91277 z"
           id="path100"
           transform="scale(0.26458333)" /><path
           style="opacity:0.5;fill:#6378c8;fill-opacity:1;stroke:none;stroke-width:0;stroke-dasharray:none;stroke-opacity:1"
           d="m 118.20237,210.80531 c -0.62329,-0.24002 -1.14119,-0.44434 -1.15088,-0.45403 -0.01,-0.01 -0.27239,-0.54639 -0.58376,-1.19264 l -0.56612,-1.17501 0.46567,-0.9321 c 0.25612,-0.51266 0.47156,-0.93854 0.47876,-0.94639 0.007,-0.008 0.49335,0.1931 1.08035,0.44656 l 1.06726,0.46085 0.69146,1.47446 c 0.38031,0.81095 0.69475,1.48595 0.69875,1.49999 0.004,0.014 -0.19847,0.30378 -0.44993,0.64386 -0.28529,0.38583 -0.48373,0.61692 -0.52775,0.61459 -0.0388,-0.002 -0.58052,-0.20011 -1.20381,-0.44014 z"
           id="path101"
           transform="scale(0.26458333)" /><path
           style="opacity:0.5;fill:#6378c8;fill-opacity:1;stroke:none;stroke-width:0;stroke-dasharray:none;stroke-opacity:1"
           d="m 115.34702,207.1501 -0.39989,-0.59033 0.24822,-1.25457 c 0.13652,-0.69002 0.25582,-1.27588 0.26511,-1.30191 0.0133,-0.0374 0.88847,-0.18545 1.09348,-0.18498 0.0325,7e-5 0.0565,0.32417 0.0777,1.04834 l 0.0306,1.04824 -0.45769,0.91278 -0.45769,0.91277 z"
           id="path102"
           transform="scale(0.26458333)" /><path
           style="opacity:0.5;fill:#6378c8;fill-opacity:1;stroke:none;stroke-width:0;stroke-dasharray:none;stroke-opacity:1"
           d="m 119.88729,211.91056 c -0.10324,-0.1896 -0.19906,-0.37452 -0.21293,-0.41094 -0.0164,-0.043 0.13859,-0.28752 0.44145,-0.69664 l 0.46667,-0.63041 0.53763,-0.0268 c 0.2957,-0.0148 0.86411,-0.029 1.26313,-0.0317 l 0.72549,-0.005 0.46851,0.61207 c 0.25768,0.33664 0.47743,0.63587 0.48835,0.66497 0.0109,0.0291 -0.0705,0.21439 -0.18093,0.41177 l -0.20075,0.35887 -1.16086,0.0277 c -0.63846,0.0153 -1.45047,0.0374 -1.80445,0.0492 l -0.64361,0.0214 z"
           id="path103"
           transform="scale(0.26458333)" /><path
           style="opacity:0.5;fill:#6378c8;fill-opacity:1;stroke:none;stroke-width:0;stroke-dasharray:none;stroke-opacity:1"
           d="m 124.15718,212.62116 -0.24488,-0.35904 0.1932,-0.35444 c 0.10627,-0.19494 0.21646,-0.37263 0.24489,-0.39486 0.0589,-0.0461 2.18124,-0.81262 2.24974,-0.81255 0.0247,3e-5 0.0824,0.0523 0.12827,0.11616 0.0459,0.0639 0.15469,0.21465 0.24179,0.33509 l 0.15836,0.21899 -0.89882,0.80442 -0.89882,0.80442 -0.46442,4.3e-4 -0.46443,4.3e-4 z"
           id="path104"
           transform="scale(0.26458333)" /><path
           style="opacity:0.5;fill:#8589da;fill-opacity:1;stroke:none;stroke-width:0;stroke-dasharray:none;stroke-opacity:1"
           d="m 115.59913,203.66788 c 0,-0.0131 0.0636,-0.16038 0.14143,-0.32721 l 0.14143,-0.30333 1.32573,-0.90605 1.32572,-0.90605 0.71775,-0.0911 c 0.39476,-0.0501 0.72318,-0.0866 0.72983,-0.0811 0.0352,0.0291 -0.62711,0.54115 -1.89801,1.4673 l -1.42151,1.0359 -0.49269,0.0677 c -0.55203,0.0759 -0.56968,0.0772 -0.56968,0.0439 z"
           id="path105"
           transform="scale(0.26458333)" /><path
           style="opacity:0.5;fill:#8589da;fill-opacity:1;stroke:none;stroke-width:0;stroke-dasharray:none;stroke-opacity:1"
           d="m 117.98458,206.31056 -1.05551,-0.45822 -0.0272,-0.28866 c -0.015,-0.15877 -0.0369,-0.63444 -0.0487,-1.05704 l -0.0215,-0.76838 1.38848,-1.01108 1.38848,-1.01109 0.66572,0.206 c 0.36615,0.1133 0.84141,0.25858 1.05614,0.32286 l 0.39041,0.11687 -0.001,1.22438 -10e-4,1.22439 -1.3097,0.97107 c -0.72033,0.53408 -1.32292,0.97468 -1.33909,0.97909 -0.0162,0.004 -0.50437,-0.19817 -1.0849,-0.45019 z"
           id="path106"
           transform="scale(0.26458333)" /><path
           style="opacity:0.5;fill:#8589da;fill-opacity:1;stroke:none;stroke-width:0;stroke-dasharray:none;stroke-opacity:1"
           d="m 120.58734,209.82425 c -0.0635,-0.12034 -1.31587,-2.79906 -1.32645,-2.83715 -0.0107,-0.0386 2.5248,-1.9443 2.58695,-1.9443 0.0756,0 2.59625,1.90657 2.58301,1.95375 -0.007,0.0263 -0.31138,0.6899 -0.67553,1.47458 l -0.66209,1.4267 -1.23345,1.5e-4 c -1.13182,1.4e-4 -1.23667,-0.006 -1.27244,-0.0737 z"
           id="path107"
           transform="scale(0.26458333)" /><path
           style="opacity:0.5;fill:#8589da;fill-opacity:1;stroke:none;stroke-width:0;stroke-dasharray:none;stroke-opacity:1"
           d="m 123.80136,210.61105 -0.47404,-0.63386 0.68782,-1.48299 0.68783,-1.483 1.07031,-0.47907 c 0.58867,-0.26348 1.08516,-0.46414 1.1033,-0.44589 0.0181,0.0182 0.22184,0.45806 0.45264,0.97735 l 0.41964,0.94418 -0.44292,0.91352 c -0.24361,0.50243 -0.50435,1.0469 -0.57942,1.20993 l -0.13648,0.29641 -1.14389,0.41078 c -0.62913,0.22593 -1.14993,0.40981 -1.15732,0.40864 -0.007,-0.001 -0.22675,-0.28737 -0.48747,-0.636 z"
           id="path108"
           transform="scale(0.26458333)" /><path
           style="opacity:0.5;fill:#8589da;fill-opacity:1;stroke:none;stroke-width:0;stroke-dasharray:none;stroke-opacity:1"
           d="m 127.04655,210.83953 -0.22649,-0.31424 0.13931,-0.30302 c 0.0766,-0.16666 0.34254,-0.721 0.59093,-1.23187 0.44813,-0.92169 0.45429,-0.93145 0.79941,-1.26661 l 0.3478,-0.33776 -0.0262,0.46043 c -0.0144,0.25324 -0.0263,0.57623 -0.0265,0.71775 -3.7e-4,0.25547 -0.005,0.26554 -0.67036,1.40969 -0.3685,0.63381 -0.67706,1.15857 -0.68571,1.16612 -0.009,0.008 -0.11763,-0.12766 -0.2422,-0.30049 z"
           id="path109"
           transform="scale(0.26458333)" /><path
           style="opacity:0.5;fill:#aab0ee;fill-opacity:1;stroke:none;stroke-width:0;stroke-dasharray:none;stroke-opacity:1"
           d="m 121.34109,201.99681 c -0.2206,-0.0696 -0.64736,-0.2033 -0.94836,-0.29707 l -0.54726,-0.17048 0.29394,-0.26814 0.29395,-0.26814 1.3857,-0.002 1.38571,-0.002 0.31313,0.2836 c 0.20405,0.18481 0.29494,0.29342 0.26089,0.31179 -0.0995,0.0537 -1.87017,0.54454 -1.9532,0.54144 -0.0459,-0.002 -0.2639,-0.0601 -0.4845,-0.12968 z"
           id="path110"
           transform="scale(0.26458333)" /><path
           style="opacity:0.5;fill:#aab0ee;fill-opacity:1;stroke:none;stroke-width:0;stroke-dasharray:none;stroke-opacity:1"
           d="m 123.29672,205.79092 -1.31645,-0.98033 -0.003,-1.22439 -0.003,-1.22438 1.04881,-0.29824 1.04881,-0.29824 1.38918,1.02925 c 1.26769,0.93923 1.39045,1.041 1.40385,1.16375 0.008,0.074 0.001,0.51705 -0.015,0.9846 l -0.0297,0.85009 -1.04297,0.46752 c -0.57363,0.25714 -1.07034,0.47723 -1.10381,0.48911 -0.0357,0.0127 -0.60491,-0.38357 -1.37729,-0.95874 z"
           id="path111"
           transform="scale(0.26458333)" /><path
           style="opacity:0.5;fill:#aab0ee;fill-opacity:1;stroke:none;stroke-width:0;stroke-dasharray:none;stroke-opacity:1"
           d="m 127.89285,207.7169 c -0.0238,-0.0445 -0.22135,-0.48864 -0.43895,-0.98697 l -0.39565,-0.90605 0.0329,-0.90357 c 0.0181,-0.49696 0.0422,-0.91293 0.0537,-0.92438 0.0288,-0.0288 0.91959,0.28516 0.97707,0.3444 0.0256,0.0264 0.14595,0.58003 0.26734,1.23023 0.1214,0.65019 0.23571,1.2515 0.25403,1.33623 0.0328,0.15166 0.0275,0.15985 -0.33688,0.52255 -0.33447,0.33293 -0.37437,0.36067 -0.41349,0.28756 z"
           id="path112"
           transform="scale(0.26458333)" /><path
           style="opacity:0.5;fill:#ede2f9;fill-opacity:1;stroke:none;stroke-width:0;stroke-dasharray:none;stroke-opacity:1"
           d="m 127.55433,203.85246 -0.47868,-0.16836 -1.42124,-1.05381 c -1.33902,-0.99284 -1.97654,-1.50049 -1.93568,-1.54135 0.0263,-0.0263 1.52867,0.22272 1.60172,0.26544 0.0342,0.02 0.60682,0.44485 1.27248,0.9441 l 1.2103,0.90774 0.12703,0.39599 c 0.0699,0.21779 0.12156,0.40108 0.11489,0.4073 -0.007,0.006 -0.22755,-0.0644 -0.49082,-0.15705 z"
           id="path113"
           transform="scale(0.26458333)" /></g><g
         id="g2"
         transform="translate(-6.6089121,0.5264517)"><path
           id="path34-7-6-7"
           style="opacity:0.75;fill:none;fill-opacity:1;stroke:#000000;stroke-width:0.0519047;stroke-dasharray:none;stroke-opacity:1"
           d="m 34.28829,51.351034 1.00024,-0.02563 m -1.128475,-0.224415 0.128235,0.250059 -0.153965,0.20967 m 1.282441,-0.466143 -0.128236,0.230828 0.154243,0.222425 m 0.779864,-0.456062 -0.164687,-0.228015 m -2.718828,0.191743 0.147693,-0.210977 m 1.647832,-0.121828 0.282119,0.371885 0.641184,-0.230823 0.320591,-0.66683 m -3.205908,-0.0056 0.314182,0.654002 0.67324,0.256476 0.275705,-0.371887 m 1.69272,-1.096421 0.250061,0.564239 0.243074,-0.238615 m -3.699609,-0.136015 0.250627,0.368221 0.269297,-0.545008 m 0.609121,0.262889 0.384709,0.82071 0.698887,-0.007 0.3783,-0.814299 m 0.634769,-0.82712 -0.01921,0.551413 -0.615535,0.275708 -0.730946,-0.545002 m -1.359304,-0.314182 0.01919,0.596301 0.609122,0.262883 0.730947,-0.545002 -0.0031,-0.683622 m 1.69788,0.516862 -0.328819,-0.115355 -0.770636,-0.571521 m -2.309985,0.587128 0.355603,-0.04766 0.759717,-0.553062 m 0.217625,-0.188153 -0.217625,0.188153 0.596196,0.18362 0.598469,-0.170017 -0.224423,-0.201756 m -1.976754,0.553127 0.716348,-0.489657 0.507789,-0.06349 h 0.752617 l 0.553127,0.09065 0.680074,0.507788 0.09069,0.290169 0.145081,0.761679 -0.0092,0.462456 -0.389913,0.671007 -0.507789,0.453383 -1.840738,0.01815 -0.534982,-0.507783 -0.417111,-0.652873 v -0.580331 l 0.145075,-0.725414 z" /><path
           style="opacity:0.75;fill:#000000;fill-opacity:0;stroke:none;stroke-width:0;stroke-dasharray:none;stroke-opacity:1"
           d="m 33.061646,49.970089 -0.105804,-0.156191 0.06568,-0.331938 c 0.03612,-0.182568 0.06768,-0.337577 0.07014,-0.344464 0.0035,-0.0099 0.235075,-0.04907 0.289317,-0.04894 0.0086,1.9e-5 0.01495,0.08577 0.02056,0.277374 l 0.0081,0.277346 -0.121097,0.241507 -0.121097,0.241503 z"
           id="path100-2-7" /></g></g><g
       id="text1"
       style="font-weight:900;font-size:2.11667px;font-family:Arial;-inkscape-font-specification:'Arial, Heavy';stroke-width:0.264583"
       transform="matrix(2.0000016,0,0,2.0000016,-52.474992,-97.617494)"
       aria-label="TFactorTX"><path
         style="font-weight:600;font-size:2.11666px;font-family:Outfit;-inkscape-font-specification:'Outfit, Semi-Bold'"
         d="m 28.048006,51.1926 v -1.456262 h 0.289982 V 51.1926 Z m -0.474132,-1.231896 v -0.256116 h 1.238246 v 0.256116 z"
         id="path1" /><path
         style="font-size:1.76389px;font-family:Outfit;-inkscape-font-specification:'Outfit, Heavy'"
         d="m 28.962756,51.1926 v -1.255889 h 0.352778 V 51.1926 Z m 0.28575,-0.446264 V 50.45353 h 0.617361 v 0.292806 z m 0,-0.51682 v -0.292805 h 0.64382 v 0.292805 z m 1.116544,0.980723 q -0.121708,0 -0.215194,-0.05821 -0.09349,-0.05821 -0.146403,-0.15875 -0.05292,-0.102306 -0.05292,-0.234598 0,-0.132291 0.05292,-0.234597 0.05292,-0.102306 0.146403,-0.15875 0.09349,-0.05821 0.215194,-0.05821 0.07585,0 0.139347,0.02646 0.06526,0.02469 0.107598,0.07056 0.0441,0.04586 0.05644,0.105834 v 0.497417 q -0.01235,0.05997 -0.05644,0.105833 -0.04233,0.04586 -0.107598,0.07232 -0.0635,0.02469 -0.139347,0.02469 z m 0.07761,-0.303389 q 0.06526,0 0.10407,-0.04057 0.04057,-0.04233 0.04057,-0.107598 0,-0.0441 -0.01764,-0.07585 -0.01764,-0.03351 -0.05115,-0.05292 -0.03175,-0.0194 -0.07408,-0.0194 -0.04233,0 -0.07585,0.0194 -0.03175,0.0194 -0.05115,0.05292 -0.0194,0.03351 -0.0194,0.07585 0,0.04233 0.01764,0.07585 0.0194,0.03351 0.05292,0.05292 0.03351,0.0194 0.07408,0.0194 z m 0.134056,0.28575 v -0.232833 l 0.04763,-0.211667 -0.04763,-0.209903 V 50.324766 H 30.91362 V 51.1926 Z m 0.941918,0.02117 q -0.141111,0 -0.254,-0.05821 -0.112889,-0.05821 -0.178153,-0.160514 -0.06526,-0.10407 -0.06526,-0.234598 0,-0.132292 0.06526,-0.234597 0.06703,-0.10407 0.179917,-0.162278 0.114653,-0.05997 0.257528,-0.05997 0.102306,0 0.183445,0.03175 0.0829,0.03175 0.153458,0.09701 l -0.216959,0.216958 q -0.02293,-0.02117 -0.05115,-0.03175 -0.02822,-0.01058 -0.06879,-0.01058 -0.04233,0 -0.07761,0.0194 -0.03351,0.01764 -0.05468,0.05115 -0.02117,0.03351 -0.02117,0.07938 0,0.04586 0.02117,0.08114 0.02117,0.03351 0.05645,0.05292 0.03528,0.0194 0.07585,0.0194 0.04586,0 0.07585,-0.01411 0.02999,-0.01411 0.05292,-0.03881 l 0.216958,0.216959 q -0.07585,0.07055 -0.15875,0.105833 -0.0829,0.03351 -0.192264,0.03351 z m 0.552098,-0.02117 v -1.224139 h 0.345722 V 51.1926 Z m -0.185209,-0.585611 v -0.282223 h 0.71614 v 0.282223 z m 1.23825,0.606778 q -0.142875,0 -0.255764,-0.05821 -0.111125,-0.05997 -0.176389,-0.164042 -0.0635,-0.10407 -0.0635,-0.234598 0,-0.130527 0.0635,-0.232833 0.0635,-0.102306 0.174625,-0.160514 0.112889,-0.05997 0.255764,-0.05997 0.142875,0 0.254,0.05997 0.111125,0.05821 0.174625,0.160514 0.06526,0.102306 0.06526,0.232833 0,0.130528 -0.0635,0.234598 -0.0635,0.104069 -0.174625,0.164042 -0.111125,0.05821 -0.254,0.05821 z m -0.0018,-0.303389 q 0.0441,0 0.07585,-0.01764 0.03351,-0.0194 0.05115,-0.05292 0.01764,-0.03528 0.01764,-0.08114 0,-0.04586 -0.0194,-0.07937 -0.01764,-0.03528 -0.04939,-0.05292 -0.03175,-0.0194 -0.07585,-0.0194 -0.04233,0 -0.07585,0.0194 -0.03175,0.0194 -0.05115,0.05468 -0.01764,0.03351 -0.01764,0.07937 0,0.0441 0.01764,0.07937 0.0194,0.03351 0.05115,0.05292 0.03351,0.01764 0.07585,0.01764 z m 0.601485,0.282222 v -0.867834 h 0.345723 V 51.1926 Z m 0.345723,-0.469194 -0.160514,-0.142876 q 0.06703,-0.141111 0.155222,-0.206375 0.08996,-0.06703 0.224014,-0.06703 0.05997,0 0.102306,0.01411 0.0441,0.01411 0.07055,0.04057 l -0.194027,0.275167 q -0.01235,-0.01411 -0.03704,-0.02293 -0.02293,-0.01058 -0.05468,-0.01058 -0.05292,0 -0.07938,0.03175 -0.02646,0.02999 -0.02646,0.08819 z"
         id="path2" /><path
         style="font-weight:600;font-size:2.11666px;font-family:Outfit;-inkscape-font-specification:'Outfit, Semi-Bold'"
         d="M 34.976208,51.1926 V 49.736338 H 35.26619 V 51.1926 Z m -0.474132,-1.231896 v -0.256116 h 1.238246 v 0.256116 z"
         id="path3" /><path
         style="font-size:1.76389px;font-family:Outfit;-inkscape-font-specification:'Outfit, Heavy'"
         d="m 36.652958,51.1926 -0.331611,-0.559153 h -0.02999 l -0.470959,-0.696736 h 0.419806 l 0.321028,0.527403 h 0.02999 l 0.47625,0.728486 z m -0.855487,0 0.451556,-0.672042 0.28575,0.119945 -0.333375,0.552097 z m 0.799043,-0.583847 -0.285751,-0.119945 0.329848,-0.552097 h 0.403931 z"
         id="path5" /></g></g><g
     inkscape:groupmode="layer"
     id="layer2"
     inkscape:label="Orb" /></svg>
