<svg width="600" height="375" viewBox="0 0 600 375" fill="none" xmlns="http://www.w3.org/2000/svg">
  <!-- Background -->
  <rect width="600" height="375" fill="#f8fafc" stroke="#e2e8f0" stroke-width="2" rx="12"/>
  
  <!-- Decorative elements -->
  <rect x="40" y="40" width="120" height="80" fill="#e0e7ff" rx="8"/>
  <rect x="180" y="40" width="80" height="60" fill="#dbeafe" rx="6"/>
  <rect x="280" y="40" width="100" height="70" fill="#e0f2fe" rx="8"/>
  
  <!-- Text placeholder -->
  <rect x="40" y="140" width="200" height="12" fill="#cbd5e1" rx="6"/>
  <rect x="40" y="160" width="150" height="12" fill="#cbd5e1" rx="6"/>
  <rect x="40" y="180" width="180" height="12" fill="#cbd5e1" rx="6"/>
  
  <!-- Icons -->
  <circle cx="500" cy="80" r="20" fill="#3b82f6" opacity="0.1"/>
  <circle cx="500" cy="80" r="8" fill="#3b82f6"/>
  
  <rect x="480" y="120" width="40" height="40" fill="#3b82f6" opacity="0.1" rx="6"/>
  <rect x="490" y="130" width="20" height="20" fill="#3b82f6" rx="3"/>
  
  <!-- Bottom accent -->
  <rect x="40" y="335" width="520" height="4" fill="#3b82f6" opacity="0.2" rx="2"/>
  
  <!-- Corner decoration -->
  <path d="M 580 20 L 600 20 L 600 40 L 580 40 Z" fill="#3b82f6" opacity="0.1"/>
  <path d="M 20 20 L 40 20 L 40 40 L 20 40 Z" fill="#3b82f6" opacity="0.1"/>
</svg> 